<?xml version="1.0" encoding="UTF-8"?>
<svg version="1.1" viewBox="0 0 2048 2048" width="2048" height="2048" xmlns="http://www.w3.org/2000/svg">
<path transform="translate(295)" d="m0 0h1458l29 3 26 5 24 7 20 7 20 9 21 11 19 12 17 13 13 11 10 9 16 16 9 11 12 15 10 15 9 15 12 23 10 25 7 22 6 25 4 28 1 13v1458l-3 29-5 26-7 24-7 20-9 20-11 21-13 20-12 16-9 11-12 13-15 15-11 9-15 12-18 12-21 12-23 11-21 8-28 8-26 5-29 3h-1458l-30-3-29-6-27-8-27-11-20-10-20-12-14-10-14-11-14-12-21-21-9-11-11-14-12-18-10-17-11-22-10-26-8-28-5-25-3-30v-1458l3-30 6-29 8-27 11-27 10-20 12-20 12-17 14-17 11-12 17-17 11-9 18-14 19-12 18-10 21-10 21-8 28-8 25-5z" fill="#FEFEFE"/>
<path transform="translate(1023,618)" d="m0 0 4 2 21 12 24 14 52 30 21 12 78 45 24 14 21 12 24 14 26 15 24 14 25 14 6 4v2h-2l1 8-1 849-24 14-49 28-26 15-21 12-24 14-28 16-52 30-21 12-52 30-28 16-20 12-5-2-26-15-70-40-20-10-9-6-25-14-24-14-52-30-28-16-26-15-42-24-19-11-3-2-1-853 1-4h-2l1-3 25-14 24-14 52-30 24-14 104-60 28-16 24-14 28-16 24-14 13-8z" fill="#096CAF"/>
<path transform="translate(1021,170)" d="m0 0 8 1 24 14 26 15 23 13 78 45 28 16 26 15 24 14 56 32 52 30 28 16 26 15 45 26 28 16 26 15 28 16 24 14 23 13 24 14 56 32 24 14 23 13 24 14 28 16 26 15 28 16 24 14 23 13 45 26 49 28 2 1v2l-53 31-27 16-26 15-22 13-44 26-24 14-1 2-1 617-13 8-25 14-24 14-25 14-17 10-23 13-45 26-24 14-13 8h-3l-1-861-16-9-21-12-26-15-24-14-25-14-27-16-25-14-24-14-49-28-52-30-28-16-24-14-28-16-26-15-28-16-24-14-23-13-45-26-19-11-5 2-27 15-43 25-28 16-24 14-25 14-24 14-52 30-28 16-52 30-28 16-24 14-56 32-24 14-77 44-19 11-1 861-4-1-28-16-27-16-18-10-24-14-23-13-21-12-26-15-28-16-13-8-1-617-4-4-28-16-17-10-80-47-27-16-26-15-15-9v-2l22-12 17-10 28-16 24-14 56-32 24-14 49-28 26-15 21-12 24-14 28-16 52-30 49-28 52-30 28-16 24-14 18-10 17-10 26-15 28-16 24-14 56-32 78-45 28-16 52-30 42-24 24-14z" fill="#940919"/>
<path transform="translate(1023,618)" d="m0 0 4 2 21 12 24 14 52 30 21 12 78 45 24 14 21 12 24 14 26 15 24 14 25 14 6 4v2h-2l1 8-1 849-24 14-49 28-26 15-21 12-24 14-28 16-52 30-10 6h-2v-855l16-9 44-26 2-2-28-16-48-28-26-15-24-14-26-15-19-11-3-1-27 16-23 13-27 16-28 16-27 16-28 16-12 7-5-1-73-43-27-16-58-34-8-5-5-1 1-3 25-14 24-14 52-30 24-14 104-60 28-16 24-14 28-16 24-14 13-8z" fill="#003C64"/>
<path transform="translate(1560,708)" d="m0 0 12 6 24 14 21 12 52 30 28 16 24 14 23 13 24 14 4 4v617l-13 8-25 14-24 14-25 14-17 10-23 13-45 26-24 14-13 8h-3z" fill="#CE1126"/>
<path transform="translate(486,709)" d="m0 0h1v859l-7-2-27-16-21-12-24-14-25-14-24-14-25-14-17-10-28-16-13-8v-617l4-4 27-15 17-10 21-12 52-30 28-16 24-14 28-16z" fill="#7C0A17"/>
<path transform="translate(1023,821)" d="m0 0 14 7 24 14 26 15 17 10 26 15 27 16 28 16 13 8-3 3-53 31-5 3h-2v561l-9-5-43-29-44-29-13-9-3-1v2l-44 29-43 29-20 13-3 1v-562l-6-2-20-12-29-17-8-5 3-3 26-15 48-28 26-15 27-16 23-13z" fill="#FEFEFE"/>
<path transform="translate(1023,618)" d="m0 0 4 2 21 12 24 14 52 30 21 12 78 45 24 14 21 12 24 14 26 15 24 14 25 14 6 4v2l-7 2-13 8-24 14-22 13-51 30-29 17-27 16-5-1-26-15-48-28-26-15-24-14-26-15-19-11-3-1-27 16-23 13-27 16-28 16-27 16-28 16-12 7-5-1-73-43-27-16-58-34-8-5-5-1 1-3 25-14 24-14 52-30 24-14 104-60 28-16 24-14 28-16 24-14 13-8z" fill="#002A47"/>
<path transform="translate(1023,1447)" d="m0 0 4 1 44 29 43 29 21 14v295l-28 16-26 15-28 16-26 15h-4l-23-13-24-14-23-13-24-14-14-7-2-3v-291l3-3 44-29 43-29 18-12h2z" fill="#07619E"/>
<path transform="translate(1023,618)" d="m0 0 3 1-1 2-1 200-9 6-28 16-26 15-27 16-28 16-48 28-7 4-5-1-73-43-27-16-58-34-8-5-5-1 1-3 25-14 24-14 52-30 24-14 104-60 28-16 24-14 28-16 24-14 13-8z" fill="#00497A"/>
</svg>
