<?xml version="1.0" encoding="UTF-8"?>
<svg version="1.1" viewBox="0 0 2048 2048" width="2048" height="2048" xmlns="http://www.w3.org/2000/svg">
<path transform="translate(1022,149)" d="m0 0 5 1 18 10 24 14 28 16 26 15 28 16 78 45 28 16 52 30 28 16 52 30 28 16 24 14 28 16 24 14 25 14 24 14 28 16 52 30 28 16 52 30 28 16 52 30 28 16 52 30 28 16 52 30 28 16 22 13v2l-28 16-25 15-26 15-27 16-82 48-13 8-1 632-8 6-25 14-24 14-25 14-24 14-56 32-48 28-5 3h-2l-1-881-17-10-26-15-28-16-52-30-28-16-52-30-28-16-24-14-56-32-24-14-28-16-26-15-28-16-52-30-28-16-48-28h-6l-24 14-28 16-24 14-28 16-26 15-28 16-52 30-28 16-24 14-56 32-24 14-28 16-26 15-28 16-52 30-28 16-26 15-15 9-1 881-5-2-23-13-24-14-26-15-28-16-26-15-56-32-26-15-3-3-1-632-15-9-87-51-27-16-26-15-25-15-21-12 1-3 18-10 24-14 56-32 24-14 56-32 24-14 56-32 24-14 56-32 24-14 56-32 24-14 77-44 104-60 28-16 24-14 56-32 24-14 28-16 26-15 28-16 24-14 28-16 26-15 28-16z" fill="#940919"/>
<path transform="translate(1022,610)" d="m0 0 6 1 52 30 24 14 26 15 23 13 24 14 78 45 24 14 78 45 21 12 3 2v878l-9 6-27 15-17 10-28 16-24 14-56 32-24 14-28 16-26 15-28 16-24 14-28 16-26 15-10 6-5-2-56-32-24-14-18-10-21-11-24-14-28-16-24-14-28-16-26-15-28-16-24-14-28-16-24-14-1-1v-878l13-8 11-6 23-13 24-14 78-45 24-14 52-30 21-12 78-45 24-14zm1 206-48 28-26 15-27 16-28 16-48 28v2l24 14 29 17 10 6 1 575 8-4 43-29 44-29 19-13 5 2 43 29 44 29 21 14h1l1-574 53-31 10-6v-2l-52-30-48-28-26-15-27-16-24-14z" fill="#003C64"/>
<path transform="translate(667,815)" d="m0 0 11 6 26 15 27 16 29 17 51 30 25 15 10 5v2l5 2 26 15 25 15 8 5 1 574 16-10 43-29 44-29 10-7 5 2 43 29 44 29 22 15 1 301-25 14-24 14-28 16-26 15-10 6-5-2-56-32-24-14-18-10-21-11-24-14-28-16-24-14-28-16-26-15-28-16-24-14-28-16-24-14-1-1z" fill="#096CAF"/>
<path transform="translate(1573,701)" d="m0 0 14 7 24 14 28 16 24 14 56 32 24 14 28 16 19 11v632l-8 6-25 14-24 14-25 14-24 14-56 32-48 28-5 3h-2z" fill="#CD1126"/>
<path transform="translate(474,701)" d="m0 0h1v881l-5-2-23-13-24-14-26-15-28-16-26-15-56-32-26-15-3-3v-632l23-13 52-30 28-16 24-14 56-32 24-14z" fill="#7C0A17"/>
<path transform="translate(1022,610)" d="m0 0 6 1 52 30 24 14 26 15 23 13 24 14 78 45 24 14 78 45 21 12 2 1v2l-22 13-51 30-29 17-25 15-26 15-23 14-6-2-22-13-26-15-48-28-26-15-27-16-24-14-5 2-28 16-27 16-28 16-48 28-26 15-15 9-7-1-73-43-51-30-25-15-24-14v-2l12-7 11-6 23-13 24-14 78-45 24-14 52-30 21-12 78-45 24-14z" fill="#002A47"/>
<path transform="translate(1024,1457)" d="m0 0 5 2 43 29 44 29 22 15 1 301-25 14-24 14-28 16-26 15-10 6-5-2-56-32-24-14-18-10-13-7v-299l3-3 44-29 43-29z" fill="#07619E"/>
<path transform="translate(1022,610)" d="m0 0h2v206l-9 6-23 13-27 16-28 16-48 28-26 15-15 9-7-1-73-43-51-30-25-15-24-14v-2l12-7 11-6 23-13 24-14 78-45 24-14 52-30 21-12 78-45 24-14z" fill="#00497A"/>
</svg>
